<svg width="20" height="21" viewBox="0 0 20 21" fill="none" xmlns="http://www.w3.org/2000/svg">
<path d="M5.75 0.75C5.75 0.551088 5.67098 0.360322 5.53033 0.21967C5.38968 0.0790177 5.19891 0 5 0C4.80109 0 4.61032 0.0790177 4.46967 0.21967C4.32902 0.360322 4.25 0.551088 4.25 0.75V2.33C2.81 2.445 1.866 2.727 1.172 3.422C0.476999 4.116 0.194999 5.061 0.0789986 6.5H19.921C19.805 5.06 19.523 4.116 18.828 3.422C18.134 2.727 17.189 2.445 15.75 2.329V0.75C15.75 0.551088 15.671 0.360322 15.5303 0.21967C15.3897 0.0790177 15.1989 0 15 0C14.8011 0 14.6103 0.0790177 14.4697 0.21967C14.329 0.360322 14.25 0.551088 14.25 0.75V2.263C13.585 2.25 12.839 2.25 12 2.25H8C7.161 2.25 6.415 2.25 5.75 2.263V0.75Z" fill="black"/>
<path fill-rule="evenodd" clip-rule="evenodd" d="M0 10.25C0 9.411 1.11759e-08 8.665 0.013 8H19.987C20 8.665 20 9.411 20 10.25V12.25C20 16.021 20 17.907 18.828 19.078C17.656 20.249 15.771 20.25 12 20.25H8C4.229 20.25 2.343 20.25 1.172 19.078C0.000999928 17.906 0 16.021 0 12.25V10.25ZM15 12.25C15.2652 12.25 15.5196 12.1446 15.7071 11.9571C15.8946 11.7696 16 11.5152 16 11.25C16 10.9848 15.8946 10.7304 15.7071 10.5429C15.5196 10.3554 15.2652 10.25 15 10.25C14.7348 10.25 14.4804 10.3554 14.2929 10.5429C14.1054 10.7304 14 10.9848 14 11.25C14 11.5152 14.1054 11.7696 14.2929 11.9571C14.4804 12.1446 14.7348 12.25 15 12.25ZM15 16.25C15.2652 16.25 15.5196 16.1446 15.7071 15.9571C15.8946 15.7696 16 15.5152 16 15.25C16 14.9848 15.8946 14.7304 15.7071 14.5429C15.5196 14.3554 15.2652 14.25 15 14.25C14.7348 14.25 14.4804 14.3554 14.2929 14.5429C14.1054 14.7304 14 14.9848 14 15.25C14 15.5152 14.1054 15.7696 14.2929 15.9571C14.4804 16.1446 14.7348 16.25 15 16.25ZM11 11.25C11 11.5152 10.8946 11.7696 10.7071 11.9571C10.5196 12.1446 10.2652 12.25 10 12.25C9.73478 12.25 9.48043 12.1446 9.29289 11.9571C9.10536 11.7696 9 11.5152 9 11.25C9 10.9848 9.10536 10.7304 9.29289 10.5429C9.48043 10.3554 9.73478 10.25 10 10.25C10.2652 10.25 10.5196 10.3554 10.7071 10.5429C10.8946 10.7304 11 10.9848 11 11.25ZM11 15.25C11 15.5152 10.8946 15.7696 10.7071 15.9571C10.5196 16.1446 10.2652 16.25 10 16.25C9.73478 16.25 9.48043 16.1446 9.29289 15.9571C9.10536 15.7696 9 15.5152 9 15.25C9 14.9848 9.10536 14.7304 9.29289 14.5429C9.48043 14.3554 9.73478 14.25 10 14.25C10.2652 14.25 10.5196 14.3554 10.7071 14.5429C10.8946 14.7304 11 14.9848 11 15.25ZM5 12.25C5.26522 12.25 5.51957 12.1446 5.70711 11.9571C5.89464 11.7696 6 11.5152 6 11.25C6 10.9848 5.89464 10.7304 5.70711 10.5429C5.51957 10.3554 5.26522 10.25 5 10.25C4.73478 10.25 4.48043 10.3554 4.29289 10.5429C4.10536 10.7304 4 10.9848 4 11.25C4 11.5152 4.10536 11.7696 4.29289 11.9571C4.48043 12.1446 4.73478 12.25 5 12.25ZM5 16.25C5.26522 16.25 5.51957 16.1446 5.70711 15.9571C5.89464 15.7696 6 15.5152 6 15.25C6 14.9848 5.89464 14.7304 5.70711 14.5429C5.51957 14.3554 5.26522 14.25 5 14.25C4.73478 14.25 4.48043 14.3554 4.29289 14.5429C4.10536 14.7304 4 14.9848 4 15.25C4 15.5152 4.10536 15.7696 4.29289 15.9571C4.48043 16.1446 4.73478 16.25 5 16.25Z" fill="black"/>
</svg>
