<svg width="20" height="18" viewBox="0 0 20 18" fill="none" xmlns="http://www.w3.org/2000/svg">
<path fill-rule="evenodd" clip-rule="evenodd" d="M2.75 3.24854C2.02065 3.24854 1.32118 3.53827 0.805456 4.05399C0.289731 4.56972 0 5.26919 0 5.99854V14.9985C0 15.7279 0.289731 16.4274 0.805456 16.9431C1.32118 17.4588 2.02065 17.7485 2.75 17.7485H16.75C17.4793 17.7485 18.1788 17.4588 18.6945 16.9431C19.2103 16.4274 19.5 15.7279 19.5 14.9985V5.99854C19.5 5.26919 19.2103 4.56972 18.6945 4.05399C18.1788 3.53827 17.4793 3.24854 16.75 3.24854H2.75ZM14.25 9.24854C13.9185 9.24854 13.6005 9.38023 13.3661 9.61465C13.1317 9.84907 13 10.167 13 10.4985C13 10.8301 13.1317 11.148 13.3661 11.3824C13.6005 11.6168 13.9185 11.7485 14.25 11.7485C14.5815 11.7485 14.8995 11.6168 15.1339 11.3824C15.3683 11.148 15.5 10.8301 15.5 10.4985C15.5 10.167 15.3683 9.84907 15.1339 9.61465C14.8995 9.38023 14.5815 9.24854 14.25 9.24854Z" fill="black"/>
<path d="M14.235 0.0674436C14.5311 -0.011458 14.8413 -0.0212737 15.1418 0.0387537C15.4423 0.0987812 15.7249 0.227047 15.968 0.413651C16.211 0.600255 16.4079 0.840207 16.5435 1.11499C16.6791 1.38977 16.7498 1.69203 16.75 1.99844H6.75L14.235 0.0674436Z" fill="black"/>
</svg>
