<svg width="15" height="15" viewBox="0 0 15 15" fill="none" xmlns="http://www.w3.org/2000/svg">
<path d="M14.8181 5.16869L13.439 3.78963C13.3277 3.67986 13.1794 3.61577 13.0232 3.60998C12.867 3.6042 12.7143 3.65714 12.5953 3.75838C12.4114 3.91486 12.1755 3.99656 11.9343 3.9873C11.693 3.97804 11.4641 3.87849 11.2928 3.70838C11.1227 3.53709 11.0232 3.30819 11.014 3.06703C11.0047 2.82586 11.0864 2.59001 11.2428 2.40619C11.344 2.28711 11.3969 2.13442 11.3911 1.97824C11.3854 1.82205 11.3213 1.6737 11.2115 1.56244L9.83119 0.181813C9.71454 0.0653881 9.55646 0 9.39166 0C9.22685 0 9.06877 0.0653881 8.95213 0.181813L6.75369 2.37994C6.61798 2.51618 6.51563 2.68195 6.45463 2.86431C6.44275 2.89938 6.42296 2.93123 6.39678 2.95741C6.37061 2.98359 6.33875 3.00338 6.30369 3.01525C6.12125 3.07624 5.95545 3.17872 5.81931 3.31463L0.181813 8.95213C0.0653881 9.06877 0 9.22685 0 9.39166C0 9.55646 0.0653881 9.71454 0.181813 9.83119L1.56244 11.2103C1.6737 11.32 1.82205 11.3841 1.97824 11.3899C2.13442 11.3957 2.28711 11.3427 2.40619 11.2415C2.58959 11.0838 2.82583 11.0011 3.06757 11.0102C3.30931 11.0193 3.53869 11.1194 3.70974 11.2904C3.8808 11.4615 3.98089 11.6909 3.98997 11.9326C3.99905 12.1744 3.91643 12.4106 3.75869 12.594C3.65746 12.7131 3.60451 12.8658 3.6103 13.0219C3.61608 13.1781 3.68017 13.3265 3.78994 13.4378L5.169 14.8168C5.28565 14.9332 5.44372 14.9986 5.60853 14.9986C5.77334 14.9986 5.93141 14.9332 6.04806 14.8168L11.6856 9.17931C11.8214 9.04327 11.9239 8.87758 11.9849 8.69525C11.9968 8.66007 12.0166 8.62811 12.0428 8.60187C12.069 8.57563 12.101 8.55582 12.1362 8.544C12.3185 8.48302 12.4841 8.38065 12.6203 8.24494L14.8184 6.0465C14.9344 5.92986 14.9995 5.77203 14.9994 5.60753C14.9994 5.44303 14.9341 5.28524 14.8181 5.16869ZM7.6815 4.24213C7.63507 4.28857 7.57994 4.32541 7.51927 4.35054C7.4586 4.37568 7.39358 4.38861 7.32791 4.38861C7.26224 4.38861 7.19721 4.37568 7.13654 4.35054C7.07587 4.32541 7.02074 4.28857 6.97431 4.24213L6.61463 3.88244C6.52314 3.7882 6.47241 3.66174 6.4734 3.5304C6.47439 3.39907 6.52702 3.27339 6.61991 3.18054C6.7128 3.08768 6.8385 3.03511 6.96984 3.03418C7.10118 3.03325 7.22761 3.08404 7.32181 3.17556L7.6815 3.53494C7.72794 3.58137 7.76478 3.63649 7.78992 3.69716C7.81505 3.75783 7.82799 3.82286 7.82799 3.88853C7.82799 3.9542 7.81505 4.01923 7.78992 4.0799C7.76478 4.14057 7.72794 4.19569 7.6815 4.24213ZM9.0565 5.61713C8.96274 5.71082 8.83561 5.76346 8.70306 5.76346C8.57051 5.76346 8.44338 5.71082 8.34963 5.61713L8.00588 5.27338C7.9121 5.1796 7.85941 5.05241 7.85941 4.91978C7.85941 4.78716 7.9121 4.65997 8.00588 4.56619C8.09965 4.47241 8.22685 4.41972 8.35947 4.41972C8.49209 4.41972 8.61928 4.47241 8.71306 4.56619L9.05681 4.90994C9.10342 4.95637 9.1404 5.01153 9.16564 5.07228C9.19089 5.13302 9.2039 5.19815 9.20393 5.26394C9.20396 5.32972 9.191 5.39486 9.16581 5.45563C9.14062 5.51639 9.10369 5.57159 9.05713 5.61806L9.0565 5.61713ZM10.4315 6.99213C10.3851 7.03857 10.3299 7.07541 10.2693 7.10054C10.2086 7.12568 10.1436 7.13861 10.0779 7.13861C10.0122 7.13861 9.94721 7.12568 9.88654 7.10054C9.82587 7.07541 9.77074 7.03857 9.72431 6.99213L9.38056 6.64838C9.28908 6.55413 9.23835 6.42768 9.23934 6.29634C9.24033 6.165 9.29295 6.03933 9.38585 5.94647C9.47874 5.85362 9.60444 5.80105 9.73578 5.80012C9.86712 5.79919 9.99355 5.84997 10.0878 5.9415L10.4315 6.28525C10.4782 6.3316 10.5154 6.38672 10.5407 6.44745C10.5661 6.50818 10.5793 6.57333 10.5794 6.63914C10.5795 6.70496 10.5667 6.77016 10.5416 6.83101C10.5165 6.89185 10.4796 6.94713 10.4331 6.99369L10.4315 6.99213ZM11.8199 8.384C11.7735 8.43044 11.7184 8.46728 11.6577 8.49242C11.597 8.51755 11.532 8.53049 11.4663 8.53049C11.4007 8.53049 11.3356 8.51755 11.275 8.49242C11.2143 8.46728 11.1592 8.43044 11.1128 8.384L10.7553 8.02463C10.7078 7.97833 10.6701 7.92308 10.6442 7.86207C10.6184 7.80106 10.6049 7.73552 10.6045 7.66925C10.6042 7.60298 10.6171 7.53731 10.6424 7.47606C10.6677 7.41481 10.7049 7.35919 10.7518 7.31245C10.7988 7.26571 10.8546 7.22876 10.916 7.20378C10.9774 7.17879 11.0431 7.16625 11.1094 7.16688C11.1756 7.16752 11.2411 7.18133 11.302 7.2075C11.3629 7.23366 11.4179 7.27167 11.464 7.31931L11.8218 7.67838C11.8682 7.72483 11.905 7.77997 11.9302 7.84065C11.9553 7.90133 11.9682 7.96636 11.9681 8.03203C11.9681 8.0977 11.9551 8.16273 11.93 8.22338C11.9048 8.28404 11.868 8.33915 11.8215 8.38556L11.8199 8.384Z" fill="black"/>
</svg>
