<svg width="13" height="12" viewBox="0 0 13 12" fill="none" xmlns="http://www.w3.org/2000/svg">
<path d="M13 1V9C13 9.26522 12.8947 9.51957 12.7071 9.70711C12.5196 9.89464 12.2652 10 12 10H3.68752L1.65002 11.76L1.64439 11.7644C1.46439 11.9169 1.23597 12.0004 1.00002 12C0.853314 11.9997 0.708452 11.9673 0.575642 11.905C0.402895 11.8254 0.256739 11.6977 0.154656 11.5372C0.0525737 11.3767 -0.00111318 11.1902 1.74982e-05 11V1C1.74982e-05 0.734784 0.105374 0.48043 0.292911 0.292893C0.480447 0.105357 0.734801 0 1.00002 0H12C12.2652 0 12.5196 0.105357 12.7071 0.292893C12.8947 0.48043 13 0.734784 13 1Z" fill="black"/>
</svg>
