<svg width="24" height="24" viewBox="0 0 24 24" fill="none" xmlns="http://www.w3.org/2000/svg">
<path d="M23.2404 21.7224L21.6 16.8H19.8L20.7996 21.6H3.20041L4.20001 16.8H2.40001L0.758405 21.7224C0.342005 22.9752 1.08001 24 2.40001 24H21.6C22.92 24 23.658 22.9752 23.2404 21.7224ZM18 6C18 4.4087 17.3679 2.88258 16.2426 1.75736C15.1174 0.632141 13.5913 0 12 0C10.4087 0 8.88258 0.632141 7.75736 1.75736C6.63215 2.88258 6.00001 4.4087 6.00001 6C6.00001 11.73 12 18 12 18C12 18 18 11.73 18 6ZM8.76001 6.072C8.76032 5.21291 9.10182 4.38911 9.7094 3.78175C10.317 3.17439 11.1409 2.8332 12 2.8332C12.8591 2.8332 13.6831 3.17449 14.2906 3.782C14.8981 4.3895 15.2394 5.21346 15.2394 6.0726C15.2394 6.93174 14.8981 7.7557 14.2906 8.3632C13.6831 8.97071 12.8591 9.312 12 9.312C11.1407 9.312 10.3166 8.97064 9.70898 8.36303C9.10136 7.75541 8.76001 6.9313 8.76001 6.072Z" fill="black"/>
</svg>
