<svg width="24" height="24" viewBox="0 0 24 24" fill="none" xmlns="http://www.w3.org/2000/svg">
<path fill-rule="evenodd" clip-rule="evenodd" d="M12 2.00002C13.3132 2.00001 14.6136 2.25866 15.8268 2.76121C17.0401 3.26375 18.1425 4.00034 19.0711 4.92893C19.9997 5.85751 20.7363 6.9599 21.2388 8.17316C21.7414 9.38642 22 10.6868 22 12C22 17.5229 17.5229 22 12 22C6.47719 22 2.00002 17.5229 2.00002 12C2.00002 6.47719 6.47719 2.00002 12 2.00002ZM13 13H11C8.52431 13 6.39886 14.4994 5.48212 16.6398C6.93262 18.6737 9.31144 20 12 20C14.6886 20 17.0674 18.6737 18.5179 16.6396C17.6012 14.4994 15.4757 13 13 13ZM12 5.00002C10.3432 5.00002 9 6.34317 9 8.00002C9 9.65686 10.3432 11 12 11C13.6568 11 15 9.65686 15 8.00002C15 6.34317 13.6569 5.00002 12 5.00002Z" fill="black"/>
</svg>
