<svg width="24" height="24" viewBox="0 0 24 24" fill="none" xmlns="http://www.w3.org/2000/svg">
<path fill-rule="evenodd" clip-rule="evenodd" d="M19.55 15.612C19.2667 15.1373 18.8833 14.7833 18.4 14.55C18.1173 14.4 17.83 14.2667 17.538 14.15C17.246 14.0333 16.95 13.9167 16.65 13.8L20 17.15C19.9833 16.5993 19.8333 16.0867 19.55 15.612ZM8.65 5.8L14.2 11.35C14.7667 10.9667 15.2083 10.4833 15.525 9.9C15.8417 9.31667 16 8.68333 16 8C16 6.9 15.6083 5.95833 14.825 5.175C14.0417 4.39167 13.1 4 12 4C11.3167 4 10.6833 4.15833 10.1 4.475C9.51667 4.79167 9.03333 5.23333 8.65 5.8Z" fill="black"/>
<path d="M17.15 20H20L2.8 2.8L1.375 4.225L10.25 13.1C9.45067 13.2167 8.66333 13.3917 7.888 13.625C7.11267 13.8583 6.35 14.1667 5.6 14.55C5.11733 14.8007 4.73 15.1633 4.438 15.638C4.146 16.1127 4 16.6333 4 17.2V20H17.15Z" fill="black"/>
</svg>
