<svg width="24" height="24" viewBox="0 0 24 24" fill="none" xmlns="http://www.w3.org/2000/svg">
<path d="M1.5 19.5C1.5 19.6989 1.57902 19.8897 1.71967 20.0303C1.86032 20.171 2.05109 20.25 2.25 20.25H21.75C21.9489 20.25 22.1397 20.171 22.2803 20.0303C22.421 19.8897 22.5 19.6989 22.5 19.5V10.4062H1.5V19.5ZM4.59375 13.0312C4.59375 12.9318 4.63326 12.8364 4.70359 12.7661C4.77391 12.6958 4.86929 12.6562 4.96875 12.6562H9.28125C9.38071 12.6562 9.47609 12.6958 9.54642 12.7661C9.61674 12.8364 9.65625 12.9318 9.65625 13.0312V16.0312C9.65625 16.1307 9.61674 16.2261 9.54642 16.2964C9.47609 16.3667 9.38071 16.4062 9.28125 16.4062H4.96875C4.86929 16.4062 4.77391 16.3667 4.70359 16.2964C4.63326 16.2261 4.59375 16.1307 4.59375 16.0312V13.0312ZM21.75 3.75H2.25C2.05109 3.75 1.86032 3.82902 1.71967 3.96967C1.57902 4.11032 1.5 4.30109 1.5 4.5V7.59375H22.5V4.5C22.5 4.30109 22.421 4.11032 22.2803 3.96967C22.1397 3.82902 21.9489 3.75 21.75 3.75Z" fill="black"/>
</svg>
