<svg width="24" height="24" viewBox="0 0 24 24" fill="none" xmlns="http://www.w3.org/2000/svg">
<path d="M16.365 4.125H20.865C20.4144 8.43161 18.3836 12.4184 15.165 15.315C11.9212 18.2319 7.70735 19.8362 3.34501 19.815H2.19001V15.6L6.00001 14.28L7.26001 16.41L8.14501 18L9.75001 17.07C12.6237 15.402 15.0726 13.0917 16.905 10.32L18 8.595L16.17 7.635L14.67 6.855L16.305 4.125M16.305 2.25C15.9815 2.25242 15.6641 2.33782 15.3831 2.49802C15.1021 2.65823 14.8669 2.88788 14.7 3.165L13.125 5.895C12.9914 6.1132 12.9043 6.35661 12.869 6.61002C12.8338 6.86343 12.8512 7.12138 12.9202 7.36775C12.9892 7.61412 13.1082 7.84362 13.2699 8.04188C13.4317 8.24014 13.6325 8.4029 13.86 8.52L15.36 9.3C13.6855 11.8286 11.4467 13.9339 8.82001 15.45L7.50001 13.335C7.34552 13.0688 7.12787 12.8447 6.86627 12.6825C6.60467 12.5203 6.30716 12.425 6.00001 12.405C5.79046 12.4039 5.58233 12.4395 5.38501 12.51L1.50001 13.83C1.14624 13.97 0.843415 14.2142 0.631759 14.5304C0.420104 14.8465 0.309629 15.2196 0.315007 15.6V19.875C0.315007 20.3723 0.512551 20.8492 0.864181 21.2008C1.21581 21.5525 1.69273 21.75 2.19001 21.75H3.31501C8.12922 21.7513 12.7737 19.9717 16.3545 16.7537C19.9352 13.5358 22.199 9.10701 22.71 4.32C22.735 4.05836 22.7052 3.79437 22.6225 3.5449C22.5397 3.29543 22.4058 3.06597 22.2294 2.87117C22.0529 2.67636 21.8378 2.52051 21.5977 2.41355C21.3576 2.30659 21.0978 2.25089 20.835 2.25H16.305Z" fill="black"/>
</svg>
